HIERARCHY
ROOT hip
{
  OFFSET -0.49633 94.41 0.949975
  CHANNELS 6 Xposition Yposition Zposition Zrotation Xrotation Yrotation
  JOINT abdomen
  {
    OFFSET -0.426062 7.22767 -5.91278e-05
    CHANNELS 6 Xposition Yposition Zposition Zrotation Xrotation Yrotation
    JOINT chest
    {
      OFFSET 0.000990867 16.5488 -0.000187874
      CHANNELS 6 Xposition Yposition Zposition Zrotation Xrotation Yrotation
      JOINT neck
      {
        OFFSET -3.24249e-05 34.2154 0.000263214
        CHANNELS 6 Xposition Yposition Zposition Zrotation Xrotation Yrotation
        JOINT head
        {
          OFFSET 0 6.29236 0
          CHANNELS 6 Xposition Yposition Zposition Zrotation Xrotation Yrotation
          End Site
          {
            OFFSET 0 0 0
          }
        }
      }
      JOINT lCollar
      {
        OFFSET 4.06393 26.6115 -1.12343
        CHANNELS 6 Xposition Yposition Zposition Zrotation Xrotation Yrotation
        JOINT lShldr
        {
          OFFSET 14.1772 0 0
          CHANNELS 6 Xposition Yposition Zposition Zrotation Xrotation Yrotation
          JOINT lForeArm
          {
            OFFSET 26.1234 0 0
            CHANNELS 6 Xposition Yposition Zposition Zrotation Xrotation Yrotation
            JOINT lHand
            {
              OFFSET 27.7188 0 1.14441e-05
              CHANNELS 6 Xposition Yposition Zposition Zrotation Xrotation Yrotation
              JOINT lThumb1
              {
                OFFSET 2.29793 -0.468452 1.83133
                CHANNELS 6 Xposition Yposition Zposition Zrotation Xrotation Yrotation
                JOINT lThumb2
                {
                  OFFSET 5.29527 0 0
                  CHANNELS 6 Xposition Yposition Zposition Zrotation Xrotation Yrotation
                  JOINT lThumb3
                  {
                    OFFSET 3.01811 0 0
                    CHANNELS 6 Xposition Yposition Zposition Zrotation Xrotation Yrotation
                    End Site
                    {
                      OFFSET 0 0 0
                    }
                  }
                }
              }
              JOINT lIndex1
              {
                OFFSET 9.37931 0.299057 2.59235
                CHANNELS 6 Xposition Yposition Zposition Zrotation Xrotation Yrotation
                JOINT lIndex2
                {
                  OFFSET 4.34608 0 0
                  CHANNELS 6 Xposition Yposition Zposition Zrotation Xrotation Yrotation
                  JOINT lIndex3
                  {
                    OFFSET 2.1666 0 0
                    CHANNELS 6 Xposition Yposition Zposition Zrotation Xrotation Yrotation
                    End Site
                    {
                      OFFSET 0 0 0
                    }
                  }
                }
              }
              JOINT lMid1
              {
                OFFSET 9.47693 0.837646 0.294672
                CHANNELS 6 Xposition Yposition Zposition Zrotation Xrotation Yrotation
                JOINT lMid2
                {
                  OFFSET 4.77205 0 0
                  CHANNELS 6 Xposition Yposition Zposition Zrotation Xrotation Yrotation
                  JOINT lMid3
                  {
                    OFFSET 2.87216 -1.52588e-05 0
                    CHANNELS 6 Xposition Yposition Zposition Zrotation Xrotation Yrotation
                    End Site
                    {
                      OFFSET 0 0 0
                    }
                  }
                }
              }
              JOINT lRing1
              {
                OFFSET 8.65863 1.01764 -1.70161
                CHANNELS 6 Xposition Yposition Zposition Zrotation Xrotation Yrotation
                JOINT lRing2
                {
                  OFFSET 4.54612 0 0
                  CHANNELS 6 Xposition Yposition Zposition Zrotation Xrotation Yrotation
                  JOINT lRing3
                  {
                    OFFSET 2.50603 0 0
                    CHANNELS 6 Xposition Yposition Zposition Zrotation Xrotation Yrotation
                    End Site
                    {
                      OFFSET 0 0 0
                    }
                  }
                }
              }
              JOINT lPinky1
              {
                OFFSET 7.69005 0.661804 -3.90961
                CHANNELS 6 Xposition Yposition Zposition Zrotation Xrotation Yrotation
                JOINT lPinky2
                {
                  OFFSET 3.21193 0 0
                  CHANNELS 6 Xposition Yposition Zposition Zrotation Xrotation Yrotation
                  JOINT lPinky3
                  {
                    OFFSET 1.92396 0 0
                    CHANNELS 6 Xposition Yposition Zposition Zrotation Xrotation Yrotation
                    End Site
                    {
                      OFFSET 0 0 0
                    }
                  }
                }
              }
            }
          }
        }
      }
      JOINT rCollar
      {
        OFFSET -4.06772 26.6109 -1.12341
        CHANNELS 6 Xposition Yposition Zposition Zrotation Xrotation Yrotation
        JOINT rShldr
        {
          OFFSET -14.1772 -1.52587e-05 0
          CHANNELS 6 Xposition Yposition Zposition Zrotation Xrotation Yrotation
          JOINT rForeArm
          {
            OFFSET -26.1234 0 0
            CHANNELS 6 Xposition Yposition Zposition Zrotation Xrotation Yrotation
            JOINT rHand
            {
              OFFSET -27.7188 0 0
              CHANNELS 6 Xposition Yposition Zposition Zrotation Xrotation Yrotation
              JOINT rThumb1
              {
                OFFSET -2.29793 -0.468457 1.83133
                CHANNELS 6 Xposition Yposition Zposition Zrotation Xrotation Yrotation
                JOINT rThumb2
                {
                  OFFSET -5.29527 0 0
                  CHANNELS 6 Xposition Yposition Zposition Zrotation Xrotation Yrotation
                  JOINT rThumb3
                  {
                    OFFSET -3.01811 0 0
                    CHANNELS 6 Xposition Yposition Zposition Zrotation Xrotation Yrotation
                    End Site
                    {
                      OFFSET 0 0 0
                    }
                  }
                }
              }
              JOINT rIndex1
              {
                OFFSET -9.3793 0.299057 2.59236
                CHANNELS 6 Xposition Yposition Zposition Zrotation Xrotation Yrotation
                JOINT rIndex2
                {
                  OFFSET -4.34608 0 0
                  CHANNELS 6 Xposition Yposition Zposition Zrotation Xrotation Yrotation
                  JOINT rIndex3
                  {
                    OFFSET -2.16661 0 0
                    CHANNELS 6 Xposition Yposition Zposition Zrotation Xrotation Yrotation
                    End Site
                    {
                      OFFSET 0 0 0
                    }
                  }
                }
              }
              JOINT rMid1
              {
                OFFSET -9.47693 0.83764 0.294668
                CHANNELS 6 Xposition Yposition Zposition Zrotation Xrotation Yrotation
                JOINT rMid2
                {
                  OFFSET -4.77205 0 0
                  CHANNELS 6 Xposition Yposition Zposition Zrotation Xrotation Yrotation
                  JOINT rMid3
                  {
                    OFFSET -2.87218 0 0
                    CHANNELS 6 Xposition Yposition Zposition Zrotation Xrotation Yrotation
                    End Site
                    {
                      OFFSET 0 0 0
                    }
                  }
                }
              }
              JOINT rRing1
              {
                OFFSET -8.65863 1.01763 -1.70161
                CHANNELS 6 Xposition Yposition Zposition Zrotation Xrotation Yrotation
                JOINT rRing2
                {
                  OFFSET -4.5461 0 0
                  CHANNELS 6 Xposition Yposition Zposition Zrotation Xrotation Yrotation
                  JOINT rRing3
                  {
                    OFFSET -2.50604 0 0
                    CHANNELS 6 Xposition Yposition Zposition Zrotation Xrotation Yrotation
                    End Site
                    {
                      OFFSET 0 0 0
                    }
                  }
                }
              }
              JOINT rPinky1
              {
                OFFSET -7.69004 0.661797 -3.90961
                CHANNELS 6 Xposition Yposition Zposition Zrotation Xrotation Yrotation
                JOINT rPinky2
                {
                  OFFSET -3.21194 0 0
                  CHANNELS 6 Xposition Yposition Zposition Zrotation Xrotation Yrotation
                  JOINT rPinky3
                  {
                    OFFSET -1.92396 0 0
                    CHANNELS 6 Xposition Yposition Zposition Zrotation Xrotation Yrotation
                    End Site
                    {
                      OFFSET 0 0 0
                    }
                  }
                }
              }
            }
          }
        }
      }
    }
  }
  JOINT lThigh
  {
    OFFSET 8.73786 -0.00289154 0.000544548
    CHANNELS 6 Xposition Yposition Zposition Zrotation Xrotation Yrotation
    JOINT lShin
    {
      OFFSET 0 -46.6676 0
      CHANNELS 6 Xposition Yposition Zposition Zrotation Xrotation Yrotation
      JOINT lFoot
      {
        OFFSET 0 -40.1476 0
        CHANNELS 6 Xposition Yposition Zposition Zrotation Xrotation Yrotation
        JOINT lToes
        {
          OFFSET 0 -8.8846 14.2294
          CHANNELS 6 Xposition Yposition Zposition Zrotation Xrotation Yrotation
          End Site
          {
            OFFSET 0 0 0
          }
        }
      }
    }
  }
  JOINT rThigh
  {
    OFFSET -8.73786 0.00292206 -0.000535965
    CHANNELS 6 Xposition Yposition Zposition Zrotation Xrotation Yrotation
    JOINT rShin
    {
      OFFSET 0 -46.6676 1.04904e-05
      CHANNELS 6 Xposition Yposition Zposition Zrotation Xrotation Yrotation
      JOINT rFoot
      {
        OFFSET -1.14441e-05 -40.1476 0
        CHANNELS 6 Xposition Yposition Zposition Zrotation Xrotation Yrotation
        JOINT rToes
        {
          OFFSET 0 -8.8846 14.2294
          CHANNELS 6 Xposition Yposition Zposition Zrotation Xrotation Yrotation
          End Site
          {
            OFFSET 0 0 0
          }
        }
      }
    }
  }
}
MOTION
Frames:	4
Frame Time:	0.0333333
-0.49633 94.41 0.949975 -1.81456 -6.63063 13.7505 -0.426062 7.22767 -5.91278e-05 2.1955 -0.237229 -0.605479 0.000990867 16.5488 -0.000187874 3.69413 3.54826 -2.38037 -3.24249e-05 34.2154 0.000263214 0.573486 37.3757 -0.179821 -9.5367e-07 6.29236 7.6294e-06 -0.797278 -33.1912 5.83519 4.06393 26.6115 -1.12343 -5.65021 -3.88081 -7.10361 14.1772 0 9.53677e-07 -65.9517 22.4078 -16.3172 26.1234 -1.9682e-11 -4.92051e-12 7.41153e-06 -3.7993e-05 5.97711 27.7188 -7.62936e-06 1.14441e-05 12.4465 27.4872 -7.39661 2.29793 -0.468452 1.83133 69.0164 58.4161 -104.066 5.29527 -3.81469e-06 1.90735e-06 -31.6021 -3.01153 2.25065 3.01811 5.72203e-06 3.81469e-06 -6.42921 3.69819 10.2611 9.37931 0.299057 2.59235 -2.60903 1.33111 -3.39464 4.34608 1.9682e-11 4.92406e-12 -58.2 -4.57572 4.33701 2.1666 1.96785e-11 0 -11.4305 -0.165799 2.04644 9.47693 0.837646 0.294672 -21.828 -5.66585 1.29752 4.77205 9.84102e-12 4.91696e-12 -45.2177 -3.22915 18.1532 2.87216 -1.52588e-05 -7.10543e-15 -36.3605 -4.09927 10.6156 8.65863 1.01764 -1.70161 -32.9411 5.15647 -0.660966 4.54612 -7.62939e-06 1.90734e-06 -70.6991 -6.01885 8.47759 2.50603 9.53674e-06 0 1.07645 -0.0439864 0.886332 7.69005 0.661804 -3.90961 -47.3972 -19.9237 -6.54459 3.21193 1.90735e-06 2.38418e-06 -66.7804 -13.0434 15.4046 1.92396 -7.62938e-06 -7.62937e-06 -15.9842 -1.32737 7.36826 -4.06772 26.6109 -1.12341 9.58935 -3.8972 4.33143 -14.1772 -1.52587e-05 9.53677e-07 66.1701 46.5925 -0.90367 -26.1234 -3.81471e-06 1.90734e-06 1.78549e-05 1.00318e-05 12.8298 -27.7188 7.62939e-06 -5.72203e-06 -4.41539 -37.0117 -2.5018 -2.29793 -0.468457 1.83133 -57.0385 56.9802 81.4264 -5.29527 7.62936e-06 3.81468e-06 43.646 1.15068 -3.68569 -3.01811 -3.81469e-06 1.90734e-06 -15.8048 -8.79389e-05 6.74481e-05 -9.3793 0.299057 2.59236 16.608 -2.5665 -5.88513 -4.34608 -7.62939e-06 1.90734e-06 8.78824 0.0449687 -1.58265 -2.16661 7.62939e-06 2.45848e-12 10.2429 5.827e-05 -1.83561e-05 -9.47693 0.83764 0.294668 18.9538 -6.16545 -5.18963 -4.77205 -2.86101e-06 -9.83391e-12 14.5842 -0.199038 -1.27916 -2.87218 -1.96785e-11 0 7.13256 -0.0071448 -0.405566 -8.65863 1.01763 -1.70161 19.8127 -0.610972 -5.38329 -4.5461 9.53678e-07 -2.45848e-12 12.9147 -5.07999e-05 -2.56255e-06 -2.50604 9.53673e-06 -2.86102e-06 3.242 -6.40325e-06 4.35424e-05 -7.69004 0.661797 -3.90961 15.9002 -10.3651 -3.02219 -3.21194 3.81471e-06 -1.90735e-06 11.6412 -2.71064e-05 6.83061e-05 -1.92396 -9.53674e-06 -9.83746e-12 6.44316 -3.07358e-05 -2.90282e-05 8.73786 -0.00289154 0.000544548 17.4487 -8.28333 30.5515 -3.81469e-06 -46.6676 -3.81467e-06 5.40957e-07 21.3004 3.02403e-05 -2.86102e-06 -40.1476 -9.53674e-06 -5.89515 -2.22061 1.64758 3.8147e-06 -8.8846 14.2294 0.000157841 1.84895e-05 -2.49845e-05 -8.73786 0.00292206 -0.000535965 2.29613 2.56804 -40.2179 -2.86101e-06 -46.6676 1.04904e-05 1.5394e-05 12.3362 -3.61873e-06 -1.14441e-05 -40.1476 -1.43052e-06 -0.307974 -9.81772 -1.01655 3.33786e-06 -8.8846 14.2294 -2.89216e-05 8.00413e-06 5.37577e-05 
-0.446854 94.4298 0.946051 -1.86391 -6.48963 13.6046 -0.42609 7.22766 -5.91278e-05 2.17098 -0.253786 -0.481484 0.000781297 16.5488 -0.000197411 3.83101 3.58981 -1.87212 -2.52724e-05 34.2154 0.000258684 0.573478 37.3757 -0.179821 9.53675e-07 6.29237 7.62938e-06 -0.86501 -33.2251 5.15219 4.06393 26.6115 -1.12344 -5.65452 -3.87928 -7.11394 14.1772 -1.15392e-11 1.90735e-06 -66.0307 23.0214 -16.5355 26.1234 -7.62939e-06 -1.90734e-06 -3.31525e-05 -5.93373e-05 6.10354 27.7188 7.6294e-06 7.62939e-06 12.4465 27.4872 -7.39661 2.29792 -0.46846 1.83133 69.0163 58.4161 -104.066 5.29526 -1.90735e-06 3.8147e-06 -31.6021 -3.01152 2.25064 3.01813 -1.4353e-12 -5.7554e-12 -6.42922 3.69817 10.2611 9.37931 0.299049 2.59235 -2.60905 1.33111 -3.39465 4.34607 7.6294e-06 1.90735e-06 -58.2 -4.57573 4.33701 2.16661 7.6294e-06 -1.4424e-12 -11.4305 -0.16579 2.04646 9.47694 0.837631 0.294668 -21.8411 -5.09015 1.2963 4.77205 3.8147e-06 1.90735e-06 -46.5422 -3.66163 18.0736 2.87217 -1.52588e-05 2.8848e-12 -36.3605 -4.09926 10.6156 8.65864 1.01763 -1.70161 -32.9411 5.15648 -0.660982 4.54611 -7.62939e-06 -1.90735e-06 -70.6991 -6.01886 8.47756 2.50603 7.6294e-06 0 1.04195 -0.044532 0.891702 7.69005 0.661789 -3.90961 -47.3972 -19.9237 -6.54458 3.21194 3.8147e-06 -1.90735e-06 -66.7804 -13.0434 15.4046 1.92397 -5.7554e-12 3.8147e-06 -15.9842 -1.32737 7.36827 -4.06772 26.6109 -1.12341 9.51928 -3.88975 4.40247 -14.1772 1.52588e-05 1.90735e-06 66.3146 46.4715 -0.957727 -26.1234 -7.62939e-06 -3.55271e-15 2.04223e-05 1.04587e-05 12.4622 -27.7188 3.8147e-06 2.86102e-06 -4.3693 -35.9381 -2.45808 -2.29793 -0.468456 1.83133 -57.0447 56.9747 81.4232 -5.29528 -7.6294e-06 -3.8147e-06 43.6387 1.1539 -3.68603 -3.01812 1.44063e-12 -1.90735e-06 -15.8046 -0.000160939 5.03724e-05 -9.37931 0.299061 2.59235 16.6117 -2.56723 -5.88713 -4.34608 -3.81469e-06 -7.17648e-13 8.7897 0.0449362 -1.58299 -2.16659 5.72204e-06 9.53674e-07 10.2429 3.0309e-05 -2.13443e-05 -9.47693 0.837639 0.294664 18.9474 -6.16227 -5.18646 -4.77205 1.90735e-06 -3.8147e-06 14.5886 -0.199345 -1.28037 -2.87215 -7.6294e-06 3.55271e-15 7.12804 -0.00700308 -0.404312 -8.65864 1.01764 -1.70162 19.7983 -0.606993 -5.3852 -4.54611 1.90735e-06 -9.53677e-07 12.9178 -0.000173957 -0.000489214 -2.50604 1.90734e-06 -1.90735e-06 3.242 1.32335e-05 3.67123e-05 -7.69005 0.661793 -3.90961 15.8987 -10.3633 -3.01819 -3.21192 9.53674e-06 -1.90735e-06 11.6365 0.00034087 0.00172462 -1.92397 -5.72204e-06 -3.8147e-06 6.44315 -3.24434e-05 8.5379e-07 8.73786 -0.0029068 0.000543594 17.3275 -8.26281 30.8106 -9.53669e-07 -46.6676 7.6294e-06 4.09038e-06 20.9182 3.0391e-05 -1.90734e-06 -40.1476 -9.53674e-06 -5.74125 -2.11198 1.68385 5.72204e-06 -8.88459 14.2294 0.000150798 1.76625e-05 -2.2359e-05 -8.73787 0.0029068 -0.000537872 2.32196 2.49132 -40.125 1.43051e-06 -46.6676 5.72204e-06 1.93212e-05 12.0855 -9.7067e-06 -8.58306e-06 -40.1476 -3.33786e-06 -0.289305 -9.62996 -1.00793 2.86103e-06 -8.8846 14.2294 -3.31905e-05 8.32428e-06 4.24586e-05 
-0.392613 94.4501 0.937027 -1.91814 -6.33523 13.4389 -0.426118 7.22766 -5.91278e-05 2.14543 -0.26991 -0.359559 0.00058198 16.5488 -0.000201225 3.96481 3.63335 -1.37394 -2.24113e-05 34.2154 0.000253677 0.573475 37.3757 -0.179821 1.50102e-13 6.29235 -7.6294e-06 -0.92972 -33.2601 4.4834 4.06393 26.6115 -1.12344 -5.66648 -3.87499 -7.14265 14.1772 -1.52588e-05 -7.10543e-15 -66.1656 23.6825 -16.6565 26.1234 2.40163e-12 5.72204e-06 1.15304e-05 -5.6349e-05 6.45476 27.7188 -7.6294e-06 3.8147e-06 12.4465 27.4872 -7.3966 2.29792 -0.468453 1.83133 69.0164 58.4161 -104.066 5.29527 -3.8147e-06 -1.20082e-12 -31.6021 -3.01152 2.25064 3.0181 3.8147e-06 -3.8147e-06 -6.4292 3.69818 10.2611 9.37931 0.299057 2.59236 -2.60903 1.33113 -3.39466 4.34608 7.62939e-06 -1.90735e-06 -58.2 -4.57572 4.33701 2.16661 -2.40874e-12 -1.90735e-06 -11.4305 -0.165809 2.04645 9.47694 0.837631 0.29467 -21.8549 -4.48452 1.29514 4.77205 0 -1.20437e-12 -47.937 -4.1145 17.979 2.87217 -1.71662e-05 3.8147e-06 -36.3605 -4.09926 10.6156 8.65865 1.01762 -1.70161 -32.9411 5.1565 -0.660971 4.54611 -3.8147e-06 -1.90735e-06 -70.6991 -6.01885 8.47755 2.50603 0 -7.62939e-06 1.00747 -0.0450793 0.897046 7.69005 0.661789 -3.9096 -47.3972 -19.9237 -6.54458 3.21192 1.14441e-05 2.98428e-13 -66.7804 -13.0433 15.4046 1.92396 -1.52588e-05 -3.8147e-06 -15.9842 -1.32737 7.36826 -4.06772 26.6109 -1.12342 9.33861 -3.88906 4.47847 -14.1772 1.52588e-05 2.86102e-06 66.6442 46.1512 -1.18106 -26.1234 -3.8147e-06 1.90735e-06 1.23485e-05 -4.58903e-06 12.2067 -27.7188 7.6294e-06 -1.04904e-05 -4.40041 -34.4318 -2.36926 -2.29792 -0.468445 1.83133 -57.0467 56.9704 81.4246 -5.29527 4.80327e-12 1.19993e-12 43.6281 1.15856 -3.68654 -3.01811 -1.90735e-06 -1.90735e-06 -15.792 -0.00431284 -0.000216005 -9.37931 0.299065 2.59235 16.6199 -2.56799 -5.88935 -4.34608 -3.8147e-06 9.53674e-07 8.78563 0.0450553 -1.58207 -2.16661 3.8147e-06 -8.70415e-13 10.2429 5.42146e-05 -1.79292e-05 -9.47694 0.837647 0.294664 18.948 -6.159 -5.18118 -4.77206 -2.86102e-06 2.40519e-12 14.595 -0.19978 -1.28208 -2.87217 -7.6294e-06 -5.96856e-13 7.12112 -0.00676231 -0.402403 -8.65864 1.01764 -1.70161 19.7885 -0.601433 -5.38197 -4.5461 -1.74794e-12 -3.8147e-06 12.9247 -0.000398926 -0.00153423 -2.50603 -6.03073e-13 -6.00409e-13 3.24201 -1.49411e-06 3.24434e-05 -7.69005 0.661801 -3.90961 15.904 -10.3622 -3.01053 -3.21192 3.8147e-06 -3.8147e-06 11.6337 0.000540652 0.00276793 -1.92396 -7.62939e-06 -1.90735e-06 6.44316 -2.81745e-05 -6.83019e-06 8.73786 -0.0029068 0.000544548 17.2051 -8.24512 31.0637 3.8147e-06 -46.6676 -1.20082e-12 -3.64532e-06 20.543 4.0801e-05 2.86102e-06 -40.1476 -3.8147e-06 -5.59209 -2.00558 1.71495 1.90735e-06 -8.8846 14.2294 0.000156454 3.21232e-05 -1.80752e-05 -8.73786 0.00289154 -0.000535965 2.33361 2.41583 -40.0163 -1.90735e-06 -46.6676 -2.86102e-06 1.09018e-05 11.8762 -9.41291e-06 -4.29154e-06 -40.1476 -3.57627e-07 -0.268742 -9.46589 -0.989677 6.19888e-06 -8.88459 14.2294 -1.64351e-05 -2.7214e-06 4.67791e-05 
-0.334028 94.4708 0.923799 -1.9746 -6.17352 13.2637 -0.426145 7.22764 -5.91278e-05 2.11873 -0.285465 -0.240058 0.000384569 16.5488 -0.00020504 4.09533 3.67873 -0.887098 -1.95503e-05 34.2154 0.000258207 0.573472 37.3757 -0.179823 1.43051e-06 6.29237 -1.62004e-12 -0.991224 -33.2962 3.83053 4.06394 26.6115 -1.12344 -5.68465 -3.86843 -7.18627 14.1772 1.52588e-05 1.90735e-06 -66.3453 24.379 -16.6952 26.1234 1.62004e-12 -3.81469e-06 6.84857e-06 -4.18349e-05 6.98862 27.7188 -1.63425e-12 2.86102e-06 12.4465 27.4872 -7.39661 2.29792 -0.468452 1.83133 69.0163 58.4161 -104.066 5.29527 -3.81469e-06 0 -31.6021 -3.01151 2.25066 3.01812 -1.90735e-06 -3.8147e-06 -6.42922 3.69819 10.2611 9.3793 0.299057 2.59235 -2.60905 1.33113 -3.39465 4.34609 -7.62939e-06 3.8147e-06 -58.2 -4.57573 4.33701 2.1666 0 -5.72205e-06 -11.4305 -0.165797 2.04646 9.47694 0.837639 0.294666 -21.8692 -3.85455 1.29412 4.77205 3.8147e-06 -1.90735e-06 -49.3894 -4.58298 17.8688 2.87215 -2.09808e-05 1.62004e-12 -36.3605 -4.09926 10.6156 8.65864 1.01764 -1.70162 -32.9411 5.1565 -0.660955 4.5461 -3.81469e-06 -4.05009e-13 -70.6991 -6.01886 8.47755 2.50603 7.62939e-06 -7.10543e-15 0.85575 -0.047469 0.920625 7.69005 0.661796 -3.90961 -47.3972 -19.9237 -6.54456 3.21191 3.8147e-06 -9.53675e-07 -66.7804 -13.0434 15.4046 1.92397 7.62939e-06 3.8147e-06 -15.9842 -1.32735 7.36826 -4.06771 26.6109 -1.12341 9.09122 -3.89337 4.55502 -14.1772 -5.68434e-14 -9.53675e-07 67.0474 45.6995 -1.48422 -26.1234 -7.62939e-06 -1.90735e-06 1.80788e-05 9.39151e-06 12.0047 -27.7188 7.6294e-06 -2.86103e-06 -4.47384 -32.6322 -2.25732 -2.29792 -0.468456 1.83133 -57.0467 56.9669 81.4282 -5.29527 7.62939e-06 -3.55271e-15 43.6169 1.16353 -3.68708 -3.01811 4.76837e-07 -1.90735e-06 -15.7712 -0.0111864 -0.000711193 -9.37931 0.299057 2.59235 16.631 -2.56885 -5.89179 -4.34608 -3.81469e-06 -1.90735e-06 8.77786 0.0453364 -1.58033 -2.1666 5.72204e-06 -1.90735e-06 10.2429 4.50366e-05 -2.21981e-05 -9.47694 0.837639 0.294666 18.9537 -6.15631 -5.17538 -4.77205 1.90735e-06 3.8147e-06 14.6024 -0.200322 -1.2841 -2.87216 -3.8147e-06 -1.90735e-06 7.11321 -0.0064827 -0.400197 -8.65864 1.01763 -1.70161 19.7827 -0.595564 -5.37584 -4.5461 -3.8147e-06 1.90735e-06 12.9334 -0.000707351 -0.00286783 -2.50604 -8.10019e-13 -3.8147e-06 3.24201 -3.41509e-06 2.60401e-05 -7.69004 0.661797 -3.90961 15.9136 -10.3617 -3.00119 -3.21193 1.90735e-06 9.53674e-07 11.6322 0.00065335 0.00328703 -1.92398 -1.90735e-06 -1.90735e-06 6.44316 -1.92099e-05 -1.10991e-05 8.73786 -0.0029068 0.000544548 17.0906 -8.22916 31.2734 -5.72204e-06 -46.6676 3.8147e-06 -7.41322e-06 20.2117 2.76351e-05 2.86102e-06 -40.1476 -9.53674e-06 -5.46742 -1.91065 1.73514 1.90735e-06 -8.8846 14.2294 0.00015592 3.15896e-05 -1.97977e-05 -8.73787 0.0029068 -0.000535011 2.31949 2.32104 -39.8552 -6.19888e-06 -46.6676 5.72205e-06 2.02452e-05 11.7259 -1.2446e-05 -1.52588e-05 -40.1476 -7.15256e-07 -0.247405 -9.32509 -0.956547 8.58307e-06 -8.88459 14.2294 -1.69688e-05 7.09699e-06 4.49349e-05 
